<svg width="53" height="20" viewBox="0 0 53 20" fill="none" xmlns="http://www.w3.org/2000/svg">
<path fill-rule="evenodd" clip-rule="evenodd" d="M2.65555 9.22217H13.2222C13.6518 9.22217 14 9.57039 14 9.99995C14 10.4295 13.6518 10.7777 13.2222 10.7777H2.65544L7.54997 15.6723C7.85371 15.976 7.85371 16.4685 7.54997 16.7722C7.24623 17.0759 6.75377 17.0759 6.45003 16.7722L0.227806 10.55C0.146908 10.4691 0.0875571 10.3748 0.0497515 10.2743C0.017434 10.1883 0.000861061 10.0978 3.26825e-05 10.0072C1.07197e-05 10.0048 -1.70169e-07 10.0023 2.00996e-09 9.99995C2.00996e-09 9.88441 0.0251906 9.77476 0.0703783 9.67619C0.0976752 9.61654 0.132913 9.55962 0.176091 9.50705C0.194028 9.48518 0.213133 9.4643 0.233313 9.44452L6.45003 3.22781C6.75377 2.92406 7.24623 2.92406 7.54997 3.22781C7.85371 3.53155 7.85371 4.02401 7.54997 4.32775L2.65555 9.22217Z" fill="#6D6D6D"/>
<g clip-path="url(#clip0_109_8334)">
<rect width="31" height="20" transform="translate(22)" fill="white" fill-opacity="0.01"/>
<rect width="31" height="20" transform="translate(22)" fill="white" fill-opacity="0.01"/>
<path d="M28.2938 8.918C28.8631 9.086 29.3065 9.38467 29.6238 9.814C29.9411 10.234 30.0998 10.7427 30.0998 11.34C30.0998 11.8533 29.9831 12.3107 29.7498 12.712C29.5165 13.1133 29.1758 13.4307 28.7278 13.664C28.2891 13.888 27.7711 14 27.1738 14H23.3658V4.76H26.5438C27.3465 4.76 27.9858 4.97933 28.4618 5.418C28.9378 5.85667 29.1758 6.41667 29.1758 7.098C29.1758 7.48067 29.0965 7.826 28.9378 8.134C28.7885 8.442 28.5738 8.70333 28.2938 8.918ZM24.4578 5.74V8.61H26.4318C26.9545 8.61 27.3558 8.47933 27.6358 8.218C27.9158 7.95667 28.0558 7.60667 28.0558 7.168C28.0558 6.72933 27.9158 6.384 27.6358 6.132C27.3558 5.87067 26.9545 5.74 26.4318 5.74H24.4578ZM27.0618 13.02C27.6685 13.02 28.1398 12.866 28.4758 12.558C28.8118 12.2407 28.9798 11.8253 28.9798 11.312C28.9798 10.7987 28.8118 10.388 28.4758 10.08C28.1398 9.76267 27.6685 9.604 27.0618 9.604H24.4578V13.02H27.0618ZM34.3588 7.028C35.1614 7.028 35.8054 7.266 36.2908 7.742C36.7761 8.218 37.0188 8.904 37.0188 9.8V14H36.0108V13.118C35.7588 13.454 35.4368 13.7107 35.0448 13.888C34.6528 14.0653 34.2094 14.154 33.7148 14.154C33.0148 14.154 32.4408 13.9813 31.9928 13.636C31.5541 13.2907 31.3348 12.824 31.3348 12.236C31.3348 11.6573 31.5588 11.1953 32.0068 10.85C32.4548 10.5047 33.0474 10.332 33.7848 10.332H35.9408V9.744C35.9408 9.184 35.7914 8.75933 35.4928 8.47C35.2034 8.17133 34.8021 8.022 34.2888 8.022C33.8781 8.022 33.5141 8.11533 33.1968 8.302C32.8794 8.47933 32.5808 8.75 32.3008 9.114L31.5868 8.526C31.8948 8.022 32.2914 7.64867 32.7767 7.406C33.2621 7.154 33.7894 7.028 34.3588 7.028ZM33.8548 13.258C34.2281 13.258 34.5734 13.1787 34.8908 13.02C35.2081 12.852 35.4601 12.6233 35.6468 12.334C35.8428 12.0447 35.9408 11.7273 35.9408 11.382V11.214H33.9108C33.4348 11.214 33.0708 11.298 32.8188 11.466C32.5668 11.6247 32.4408 11.8627 32.4408 12.18C32.4408 12.5253 32.5761 12.7913 32.8468 12.978C33.1174 13.1647 33.4534 13.258 33.8548 13.258ZM42.3852 7.028C42.9826 7.028 43.5239 7.16333 44.0092 7.434C44.4946 7.69533 44.8912 8.05467 45.1992 8.512L44.4292 9.128C43.8786 8.39067 43.2019 8.022 42.3992 8.022C41.9326 8.022 41.5079 8.13867 41.1252 8.372C40.7519 8.596 40.4579 8.904 40.2432 9.296C40.0286 9.688 39.9212 10.1173 39.9212 10.584C39.9212 11.06 40.0286 11.494 40.2432 11.886C40.4579 12.278 40.7519 12.5907 41.1252 12.824C41.5079 13.048 41.9326 13.16 42.3992 13.16C43.2019 13.16 43.8739 12.796 44.4152 12.068L45.1852 12.67C44.8772 13.1273 44.4806 13.4913 43.9952 13.762C43.5192 14.0233 42.9826 14.154 42.3852 14.154C41.7319 14.154 41.1299 13.9953 40.5792 13.678C40.0379 13.3607 39.6086 12.9313 39.2912 12.39C38.9739 11.8393 38.8152 11.2373 38.8152 10.584C38.8152 9.93067 38.9739 9.33333 39.2912 8.792C39.6086 8.25067 40.0379 7.82133 40.5792 7.504C41.1299 7.18667 41.7319 7.028 42.3852 7.028ZM47.0162 3.5H48.0942V14H47.0162V3.5ZM52.7282 14H51.3422L48.2062 10.164L51.0482 7.182H52.4622L49.5082 10.178L52.7282 14Z" fill="#6B778C"/>
</g>
<defs>
<clipPath id="clip0_109_8334">
<rect width="31" height="20" fill="white" transform="translate(22)"/>
</clipPath>
</defs>
</svg>
