<svg width="60" height="16" viewBox="0 0 60 16" fill="none" xmlns="http://www.w3.org/2000/svg">
  <path d="M18.9701 3.02127C18.3015 2.69225 17.5382 2.52905 16.6801 2.52905H12.0659V14.8107H14.577V10.4755H16.6801C17.5356 10.4755 18.2989 10.3071 18.9701 9.97279C19.6413 9.63851 20.1651 9.16999 20.5415 8.56723C20.9205 7.96446 21.11 7.27484 21.11 6.49308C21.11 5.71133 20.9205 5.01907 20.5415 4.41894C20.1624 3.81618 19.6387 3.35292 18.9701 3.0239V3.02127ZM18.0488 7.78547C17.7198 8.11449 17.2644 8.27768 16.6801 8.27768H14.577V4.74269H16.6801C17.2513 4.74269 17.704 4.90326 18.0383 5.22702C18.3726 5.55077 18.541 5.97192 18.541 6.49308C18.541 7.01425 18.3778 7.45908 18.0488 7.78547Z" fill="white"/>
  <path d="M29.2616 6.02723C28.5036 5.60609 27.6797 5.39551 26.7874 5.39551C25.8951 5.39551 25.0528 5.60609 24.3026 6.02723C23.5525 6.44838 22.9576 7.02482 22.5154 7.75656C22.0758 8.4883 21.8547 9.30164 21.8547 10.1939C21.8547 11.0862 22.0706 11.9022 22.5049 12.6419C22.9392 13.3789 23.5314 13.9606 24.2816 14.3817C25.0318 14.8029 25.8609 15.0134 26.7664 15.0134C27.6718 15.0134 28.5036 14.8029 29.259 14.3817C30.0144 13.9606 30.6172 13.3789 31.0647 12.6419C31.5121 11.9048 31.7359 11.0889 31.7359 10.1939C31.7359 9.29901 31.5121 8.4883 31.0647 7.75656C30.6172 7.02482 30.0171 6.44838 29.259 6.02723H29.2616ZM28.4878 11.9996C28.0351 12.4708 27.4665 12.7077 26.7848 12.7077C26.103 12.7077 25.5187 12.476 25.0739 12.0101C24.6264 11.5442 24.4053 10.9467 24.4053 10.215C24.4053 9.48325 24.629 8.87787 25.0739 8.40145C25.5213 7.92503 26.0899 7.68549 26.7848 7.68549C27.4797 7.68549 28.0351 7.92765 28.4878 8.41197C28.9405 8.89629 29.1669 9.49642 29.1669 10.2176C29.1669 10.9388 28.9405 11.5337 28.4878 12.0049V11.9996Z" fill="white"/>
  <path d="M36.7396 5.80341C36.3053 6.01398 35.9342 6.31141 35.6236 6.6957V5.5981H33.3152V14.808H35.8263V10.2123C35.8263 9.41737 36.05 8.81986 36.4948 8.41714C36.9423 8.01442 37.5424 7.81175 38.3005 7.81175H38.9691V5.5981C38.7322 5.52439 38.4611 5.48755 38.1505 5.48755C37.6425 5.48755 37.1713 5.59284 36.737 5.80341H36.7396Z" fill="white"/>
  <path d="M43.5886 12.4576C43.3149 12.2418 43.1806 11.8706 43.1806 11.3495V7.7197H45.7865V5.59818H43.1806V3.27136H40.6695V5.59818H39.2192V7.7197H40.6695V11.5706C40.6695 12.7234 40.9933 13.5894 41.6382 14.1659C42.2831 14.7423 43.1885 15.0319 44.3546 15.0319C44.9126 15.0319 45.489 14.9581 46.0865 14.8081V12.705C45.4417 12.755 45.0442 12.7787 44.8968 12.7787C44.3019 12.7787 43.8676 12.6708 43.5939 12.4523L43.5886 12.4576Z" fill="white"/>
  <path d="M51.3113 5.39551C49.6978 5.39551 48.358 6.02723 47.292 7.2933L48.5949 8.83838C49.0055 8.40407 49.3951 8.08558 49.7662 7.88027C50.1374 7.67496 50.5612 7.57231 51.0323 7.57231C51.5903 7.57231 52.0167 7.71445 52.3063 8.00135C52.5985 8.28563 52.7432 8.68309 52.7432 9.19109V9.60171H50.4348C49.3688 9.60171 48.5212 9.84123 47.8948 10.3176C47.2683 10.7967 46.9551 11.4495 46.9551 12.2812C46.9551 13.113 47.2394 13.7474 47.8105 14.2633C48.3817 14.7792 49.1556 15.0345 50.1374 15.0345C50.7191 15.0345 51.2508 14.9345 51.7272 14.7371C52.2036 14.5396 52.6116 14.2659 52.9459 13.9184V14.8107H55.2543V9.34113C55.2543 8.06453 54.8963 7.08537 54.183 6.41153C53.4697 5.73507 52.5116 5.39814 51.3087 5.39814L51.3113 5.39551ZM52.7432 11.3679C52.7432 11.9022 52.5563 12.3392 52.1852 12.6787C51.814 13.0209 51.3534 13.1893 50.8086 13.1893C50.4111 13.1893 50.0926 13.0998 49.8505 12.9182C49.6083 12.7392 49.4872 12.4945 49.4872 12.1839C49.4872 11.8733 49.5978 11.6416 49.8215 11.4863C50.0452 11.331 50.3611 11.2547 50.7717 11.2547H52.7432V11.3653V11.3679Z" fill="white"/>
  <path d="M59.8133 0.85498H57.3022V14.8107H59.8133V0.85498Z" fill="white"/>
  <path d="M0 7.0563L3.15596 10.2149L0 13.3709L1.77407 15.1449L4.93003 11.989L8.08862 15.1449L9.8627 13.3709L1.77407 5.28223L0 7.0563Z" fill="white"/>
  <path d="M8.0899 5.27973L5.98486 7.38477L7.7586 9.1585L9.86364 7.05346L8.0899 5.27973Z" fill="white"/>
</svg>
