<svg width="191" height="49" viewBox="0 0 191 49" fill="none" xmlns="http://www.w3.org/2000/svg">
<path d="M60.5762 6.97337C58.4413 5.91424 56.0038 5.38892 53.2637 5.38892H38.5293V44.924H46.5479V30.9689H53.2637C55.9954 30.9689 58.4329 30.4266 60.5762 29.3506C62.7195 28.2745 64.3922 26.7663 65.5941 24.826C66.8044 22.8857 67.4096 20.6658 67.4096 18.1493C67.4096 15.6328 66.8044 13.4044 65.5941 11.4725C64.3837 9.53221 62.7111 8.04097 60.5762 6.98185V6.97337ZM57.6344 22.3095C56.5837 23.3686 55.1296 23.8939 53.2637 23.8939H46.5479V12.5147H53.2637C55.0876 12.5147 56.5333 13.0316 57.6007 14.0738C58.6682 15.1159 59.2062 16.4716 59.2062 18.1493C59.2062 19.8269 58.685 21.2588 57.6344 22.3095Z" fill="black"/>
<path d="M93.4404 16.6495C91.0197 15.2938 88.3888 14.616 85.5394 14.616C82.6901 14.616 80.0004 15.2938 77.6049 16.6495C75.2094 18.0052 73.3099 19.8608 71.8978 22.2163C70.4941 24.5718 69.7881 27.19 69.7881 30.0623C69.7881 32.9347 70.4773 35.5613 71.8642 37.9422C73.2511 40.3146 75.1422 42.1872 77.5377 43.5429C79.9332 44.8985 82.5808 45.5764 85.4722 45.5764C88.3636 45.5764 91.0197 44.8985 93.432 43.5429C95.8442 42.1872 97.769 40.3146 99.1979 37.9422C100.627 35.5698 101.341 32.9431 101.341 30.0623C101.341 27.1815 100.627 24.5718 99.1979 22.2163C97.769 19.8608 95.8527 18.0052 93.432 16.6495H93.4404ZM90.9692 35.8748C89.5235 37.3915 87.708 38.154 85.531 38.154C83.3541 38.154 81.4881 37.4084 80.0676 35.9087C78.6388 34.4089 77.9327 32.4856 77.9327 30.1301C77.9327 27.7746 78.6472 25.8258 80.0676 24.2922C81.4965 22.7586 83.3121 21.9875 85.531 21.9875C87.75 21.9875 89.5235 22.767 90.9692 24.3261C92.4149 25.8851 93.1378 27.8169 93.1378 30.1385C93.1378 32.4601 92.4149 34.3751 90.9692 35.8917V35.8748Z" fill="black"/>
<path d="M117.32 15.9294C115.933 16.6072 114.748 17.5646 113.756 18.8017V15.2684H106.385V44.9155H114.403V30.1217C114.403 27.5628 115.118 25.6394 116.538 24.3431C117.967 23.0467 119.883 22.3943 122.304 22.3943H124.439V15.2684C123.683 15.0312 122.817 14.9126 121.825 14.9126C120.203 14.9126 118.698 15.2515 117.312 15.9294H117.32Z" fill="black"/>
<path d="M139.19 37.3491C138.316 36.6543 137.887 35.4597 137.887 33.782V22.0977H146.208V15.2684H137.887V7.77832H129.869V15.2684H125.237V22.0977H129.869V34.4937C129.869 38.2049 130.902 40.9925 132.962 42.8481C135.021 44.7037 137.912 45.6357 141.636 45.6357C143.418 45.6357 145.258 45.3985 147.166 44.9155V38.1456C145.107 38.3066 143.838 38.3828 143.367 38.3828C141.468 38.3828 140.081 38.0354 139.207 37.3321L139.19 37.3491Z" fill="black"/>
<path d="M163.851 14.616C158.699 14.616 154.42 16.6495 151.016 20.725L155.177 25.6987C156.488 24.3006 157.732 23.2754 158.917 22.6145C160.102 21.9536 161.456 21.6232 162.96 21.6232C164.742 21.6232 166.104 22.0807 167.028 23.0043C167.961 23.9194 168.423 25.1988 168.423 26.8341V28.1559H161.052C157.648 28.1559 154.942 28.9269 152.941 30.4605C150.941 32.0026 149.94 34.1039 149.94 36.7814C149.94 39.4589 150.848 41.5008 152.672 43.1616C154.496 44.8223 156.967 45.6442 160.102 45.6442C161.96 45.6442 163.658 45.3222 165.179 44.6867C166.7 44.0513 168.003 43.17 169.071 42.0516V44.924H176.442V27.3171C176.442 23.2076 175.299 20.0557 173.021 17.8866C170.743 15.709 167.684 14.6244 163.843 14.6244L163.851 14.616ZM168.423 33.8412C168.423 35.5613 167.827 36.9678 166.642 38.0608C165.456 39.1623 163.986 39.7046 162.246 39.7046C160.976 39.7046 159.959 39.4165 159.186 38.8319C158.413 38.2557 158.026 37.4677 158.026 36.4679C158.026 35.4681 158.379 34.7224 159.094 34.2225C159.808 33.7226 160.817 33.4769 162.128 33.4769H168.423V33.8328V33.8412Z" fill="black"/>
<path d="M191 0H182.981V44.9239H191V0Z" fill="black"/>
<path d="M0 19.9625L10.0778 30.1301L0 40.2893L5.66511 46.0001L15.7429 35.841L25.8292 46.0001L31.4943 40.2893L5.66511 14.2517L0 19.9625Z" fill="black"/>
<path d="M25.8333 14.2433L19.1113 21.0195L24.7754 26.7292L31.4973 19.9531L25.8333 14.2433Z" fill="black"/>
</svg>
